<svg width="1000" height="200" viewBox="0 0 1000 200" fill="none" xmlns="http://www.w3.org/2000/svg">
<rect width="1000" height="200" fill="black"/>
<path d="M264.505 166.486C299.002 166.486 317.755 153.486 317.755 130.122C317.755 110.446 303.602 98.3243 275.119 93.5811L255.305 90.4189C240.622 88.1351 233.899 83.9189 233.899 74.6081C233.899 66 243.983 59.1487 262.205 59.1487H265.035C283.434 59.1487 295.287 66.527 297.233 79.7027H317.762C319.084 79.7027 320.121 78.5549 319.92 77.2449C316.378 54.1054 296.44 40 263.62 40C227.53 40 211.962 57.3919 211.962 75.6622C211.962 97.2703 224.169 106.757 251.944 111.5L271.227 114.662C288.918 117.473 295.818 122.743 295.818 131.176C295.818 140.662 287.149 147.338 265.743 147.338H262.912C242.037 147.338 228.769 139.608 228.061 124.149H207.338C206.089 124.149 205.077 125.182 205.156 126.432C206.837 153.027 229.061 166.486 264.505 166.486Z" fill="#CCFF00"/>
<path d="M387.414 164.73V149.401C387.414 148.164 386.414 147.162 385.181 147.162H370.195C364.888 147.162 363.119 145.405 363.119 140.135V93.9324H384.975C386.208 93.9324 387.208 92.9301 387.208 91.6937V79.7027H363.119V50.6711C363.119 49.4347 362.119 48.4324 360.885 48.4324H342.243V79.7027H322.539C321.306 79.7027 320.306 80.705 320.306 81.9414V93.9324H342.243V145.405C342.243 157.703 349.143 164.73 363.649 164.73H387.414Z" fill="#CCFF00"/>
<path d="M431.917 166.486C448.547 166.486 460.4 158.757 464.469 150.851C464.469 151.621 464.741 158.322 465.403 162.924C465.554 163.979 466.472 164.73 467.535 164.73H485.168C484.46 158.581 483.929 150.676 483.929 145.405V108.514C483.929 89.0135 468.715 75.1351 440.232 75.1351C417.904 75.1351 401.948 85.8931 398.866 100.953C398.599 102.258 399.641 103.419 400.97 103.419H419.711C420.772 96.0405 428.556 92 438.994 92H441.824C455.447 92 463.585 97.2703 463.585 107.459V109.743L431.917 111.851C411.75 113.081 396.005 120.986 396.005 140.486C396.005 155.595 408.742 166.486 431.917 166.486ZM433.687 149.622C421.834 149.622 417.057 145.405 417.057 138.73C417.057 132.23 422.364 127.838 437.579 126.784L463.585 125.203V131.351C463.585 144 449.255 149.622 436.163 149.622H433.687Z" fill="#CCFF00"/>
<path d="M512.369 164.73V120.459C512.369 103.419 525.637 92 539.613 92H542.09C555.712 92 561.904 101.662 561.904 115.541V162.491C561.904 163.727 562.903 164.73 564.137 164.73H582.779V111.324C582.779 90.4189 569.865 75.1351 544.92 75.1351C528.291 75.1351 518.207 82.3378 512.369 90.4189V79.1306C512.369 77.8942 511.369 76.8919 510.135 76.8919H491.493V162.491C491.493 163.727 492.493 164.73 493.726 164.73H512.369Z" fill="#CCFF00"/>
<path d="M637.811 166.486C651.61 166.486 664.525 161.216 671.07 152.959V164.73H689.713C690.946 164.73 691.946 163.727 691.946 162.491V41.7568H673.303C672.07 41.7568 671.07 42.7591 671.07 43.9955V89.1892C665.409 81.4595 653.379 75.1351 637.457 75.1351C611.097 75.1351 590.753 90.7703 590.753 120.811C590.753 149.27 610.921 166.486 637.811 166.486ZM639.403 149.622C623.304 149.622 611.805 139.432 611.805 120.811C611.805 102.189 623.304 92 639.403 92H641.88C658.333 92 671.07 102.189 671.07 120.811C671.07 139.432 658.333 149.622 641.88 149.622H639.403Z" fill="#CCFF00"/>
<path d="M737.488 166.486C754.117 166.486 765.97 158.757 770.039 150.851C770.039 151.621 770.311 158.322 770.973 162.924C771.125 163.979 772.042 164.73 773.105 164.73H790.738C790.03 158.581 789.5 150.676 789.5 145.405V108.514C789.5 89.0135 774.285 75.1351 745.803 75.1351C723.474 75.1351 707.518 85.8931 704.436 100.953C704.169 102.258 705.212 103.419 706.54 103.419H725.281C726.342 96.0405 734.127 92 744.564 92H747.395C761.017 92 769.155 97.2703 769.155 107.459V109.743L737.488 111.851C717.32 113.081 701.575 120.986 701.575 140.486C701.575 155.595 714.313 166.486 737.488 166.486ZM739.257 149.622C727.404 149.622 722.627 145.405 722.627 138.73C722.627 132.23 727.935 127.838 743.149 126.784L769.155 125.203V131.351C769.155 144 754.825 149.622 741.734 149.622H739.257Z" fill="#CCFF00"/>
<path d="M821.625 164.73V120.635C821.625 104.297 830.116 95.8649 845.154 95.8649H861.076V76.8919H846.392C831.885 76.8919 824.986 82.6892 820.74 94.2838V79.1306C820.74 77.8942 819.74 76.8919 818.507 76.8919H800.749V162.491C800.749 163.727 801.749 164.73 802.982 164.73H821.625Z" fill="#CCFF00"/>
<path d="M906.865 166.486C920.664 166.486 933.579 161.216 940.124 152.959V164.73H958.767C960 164.73 961 163.727 961 162.491V41.7568H942.358C941.124 41.7568 940.124 42.7591 940.124 43.9955V89.1892C934.463 81.4595 922.433 75.1351 906.511 75.1351C880.152 75.1351 859.807 90.7703 859.807 120.811C859.807 149.27 879.975 166.486 906.865 166.486ZM908.457 149.622C892.358 149.622 880.859 139.432 880.859 120.811C880.859 102.189 892.358 92 908.457 92H910.934C927.387 92 940.124 102.189 940.124 120.811C940.124 139.432 927.387 149.622 910.934 149.622H908.457Z" fill="#CCFF00"/>
<path d="M117.05 157.204C117.05 161.25 113.73 164.53 109.635 164.53L39.001 164.53C39.001 159.294 39.001 161.222 39.001 157.176L39.1967 94.9341C39.1967 90.8881 42.5163 87.6082 46.6113 87.6082C46.6113 87.6082 113.872 87.6076 117.051 87.6082C117.052 89.4123 117.05 90.8881 117.05 94.9341L117.05 157.204ZM102.222 149.878V102.26H54.0269L54.0269 149.878H102.222Z" fill="#CCFF00"/>
<path d="M128.188 31.6799C132.066 31.6799 135.243 34.6924 135.523 38.5134L135.544 39.0645C135.544 39.0645 135.544 114.98 135.544 119.058C135.544 123.137 132.25 122.164 128.188 122.164C124.31 122.164 121.133 119.151 120.852 115.33L120.832 114.779C120.832 114.779 120.832 38.9076 120.832 34.8292C120.832 30.7508 124.125 31.6799 128.188 31.6799Z" fill="#CCFF00"/>
<path d="M158.887 43.6004C161.776 46.1766 162.125 50.5316 159.775 53.5648L159.421 53.9888C159.421 53.9888 133.299 84.3701 130.568 87.4086C127.836 90.4471 126.034 87.5345 123.008 84.8356C120.119 82.2594 119.77 77.9045 122.12 74.8712L122.474 74.4472C122.474 74.4472 148.566 44.0985 151.298 41.06C154.029 38.0215 155.861 40.9016 158.887 43.6004Z" fill="#CCFF00"/>
<path d="M95.787 45.2104C98.5052 42.456 102.889 42.3111 105.822 44.79L106.231 45.162C106.231 45.162 160.593 98.3762 163.514 101.235C166.434 104.094 163.429 105.751 160.582 108.637C157.864 111.391 153.479 111.536 150.546 109.057L150.138 108.685C150.138 108.685 95.8067 55.5016 92.8862 52.6428C89.9657 49.784 92.9394 48.096 95.787 45.2104Z" fill="#CCFF00"/>
<path d="M82.7585 76.5633C82.7895 72.7013 85.8396 69.5615 89.6783 69.3125L90.2318 69.2968C90.2318 69.2968 166.453 69.905 170.548 69.9377C174.643 69.9704 173.64 73.2424 173.607 77.2883C173.576 81.1503 170.526 84.2901 166.687 84.5391L166.134 84.5548C166.134 84.5548 89.9564 83.9469 85.8615 83.9142C81.7667 83.8815 82.7259 80.6092 82.7585 76.5633Z" fill="#CCFF00"/>
</svg>
